<svg width="240" height="240" viewBox="0 0 240 240" fill="none" xmlns="http://www.w3.org/2000/svg">
  <rect width="240" height="240" rx="24" fill="#F8F6EF"/>
  <rect x="42" y="54" width="156" height="122" rx="18" fill="#FFFFFF" stroke="#EEE3D0" stroke-width="3"/>
  <path d="M76 92C83 78 94 72 109 74C124 76 133 85 138 100C146 94 157 95 166 102C177 110 180 126 174 139C168 152 153 160 138 156C129 166 114 169 101 164C88 159 80 149 78 136C64 132 56 119 59 106C61 100 67 94 76 92Z" fill="#FFB35A"/>
  <path d="M87 103C97 88 116 86 129 99C134 104 138 111 139 119" stroke="#E8741A" stroke-width="7" stroke-linecap="round"/>
  <path d="M92 126C105 137 123 138 139 129" stroke="#B05A1C" stroke-width="7" stroke-linecap="round"/>
  <circle cx="157" cy="119" r="13" fill="#FFE1A8"/>
  <rect x="70" y="185" width="100" height="10" rx="5" fill="#E6D8C0"/>
  <rect x="90" y="199" width="60" height="8" rx="4" fill="#EFE4D2"/>
</svg>
